<?xml version="1.0" encoding="UTF-8"?>
<svg width="28" height="28" version="1.1" xmlns="http://www.w3.org/2000/svg"><path d="m9 3-1.732 1 1.154 2h-6.422v2h2.305a15 15 0 003.723 7.225 13 13 0 01-4.875 2.387l.4863 1.939a15 15 0 005.861-2.943 15 15 0 004.439 2.512l.9023-1.803a13 13 0 01-3.867-2.09 15 15 0 003.721-7.227h2.305v-2h-6.268l-1.732-3zm-2.646 5h6.295a13 13 0 01-3.148 5.875 13 13 0 01-3.146-5.875zm12.65 2-6 15h2l1.955-4.887c2.672.6592 5.313.8289 6.438.8691l1.607 4.018h2l-6-15h-2zm1 2.5 2.596 6.488c-.7753-.02503-2.799-.144-4.924-.668l2.328-5.82z" fill="#84848b"/></svg>
