<?xml version="1.0" encoding="UTF-8"?>
<svg width="28" height="28" version="1.1" xmlns="http://www.w3.org/2000/svg"><rect width="28" height="28" ry="2" fill="#0671af" stroke-linejoin="round" stroke-width=".5"/><path d="m5.932 3.668a2.333 2.333 0 00-2.266 2.332 2.333 2.333 0 002.334 2.334 2.333 2.333 0 002.334-2.334 2.333 2.333 0 00-2.334-2.332 2.333 2.333 0 00-.06836 0zm13.87 6.811c-2.017-.1358-4.029.7185-4.805 2.521v-2h-4v13h4v-7c0-1.657 1.343-3 3-3s3 1.343 3 3v7h4v-8c0-3.536-2.602-5.347-5.195-5.521zm-15.8.5215v13h4v-13h-4z" fill="#fff" stroke-linejoin="round" stroke-width=".5"/></svg>
