<?xml version="1.0" encoding="UTF-8"?>
<svg width="62" height="46" version="1.1" xmlns="http://www.w3.org/2000/svg"><g><path d="m57.6 2c-1.474-5.4e-4 -2.66 1.194-2.66 2.66-5.4e-4 1.474 1.194 2.66 2.66 2.66 1.474 5.4e-4 2.66-1.194 2.66-2.66 5.36e-4 -1.474-1.194-2.66-2.66-2.66zm-23.6 8v28h4v-8h4c5.52 0 10-4.48 10-10s-4.48-10-10-10zm21.6 0v20h4v-20zm-17.6 4h4c3.32 0 6 2.68 6 6s-2.68 6-6 6h-4z" fill="#27283a"/><path d="m2 12.578v31.422l13.49-7.7089 0.0059-16.004z" fill="#03045e"/><path d="m15.496 20.287-13.496 7.7129v16l13.49-7.709 0.009766-16.002z" fill="#023e8a"/><path d="m16 4-13.496 7.7109 13.496 7.7148 13.496-7.715z" fill="#90e0ef"/><path d="m16 4v15.426l13.496-7.7148z" fill="#c2fcda"/><path d="m30 12.578-13.496 7.709-0.003906 15.428 13.5-7.7148z" fill="#0096c7"/><path d="m30 12.578-13.496 7.709 13.496 7.7129z" fill="#00b4d8"/></g><path d="m2.5039 11.711-0.50391 0.28906v0.57812l13.5 7.7109-0.0098 16.002 1.0098-0.57617v-15.426l13.5-7.7109v-0.57812l-0.50391-0.28906-13.496 7.7148z" fill="#effcff"/></svg>
