<?xml version="1.0" encoding="UTF-8"?>
<svg width="192" height="46" version="1.1" xmlns="http://www.w3.org/2000/svg"><g><path d="m69.6 2c-1.474-5.4e-4 -2.66 1.194-2.66 2.66-5.4e-4 1.474 1.194 2.66 2.66 2.66 1.474 5.4e-4 2.66-1.194 2.66-2.66 5.36e-4 -1.474-1.194-2.66-2.66-2.66zm28.2 2v18c0 8 10 8 10 8l-1-4s-5-0.284-5-4v-7.8h5v-4h-5v-6.2zm-51.8 6v28h4v-8h4c5.52 0 10-4.48 10-10s-4.48-10-10-10zm21.6 0v20h4v-20zm8.2 0v20h4v-16h4c4.2 0 6 2 6 6v10h4v-10c0-6.96-2.84-10-10-10zm44.2 0c-5.52 0-10 4.48-10 10 0 5.32 4.26 10 10 10 3.56-0.0086 6.86-1.916 8.64-5l-3.46-1.992c-1.068 1.852-3.04 3-5.18 3-2.34-0.0024-4.44-1.356-5.44-3.46l15.3-4.12c-0.86-5.2556-5.3288-8.4297-9.86-8.428zm12.8 0v20h4v-15.7c5.6 0 7.64 1.7 7.64 1.7l3.22-2s-4.06-4-10.86-4zm26 0c-5.52 0-10 4.48-10 10s4.48 10 10 10 10-4.48 10-10-4.48-10-10-10zm13.4 0v28h4v-8h4c5.52 0 10-4.48 10-10s-4.48-10-10-10zm-122.2 4h4c3.32 0 6 2.68 6 6s-2.68 6-6 6h-4zm126.2 0h4c3.32 0 6 2.68 6 6s-2.68 6-6 6h-4zm-56.2 4e-3c1.976 0.0038 3.82 0.982 4.94 2.62l-10.92 2.92c0.24-3.12 2.84-5.54 5.98-5.54zm38.8 0c3.34 2e-3 5.96 2.92 6 6s-2.68 6-6 6-6.02-2.9-6-6 2.66-6 6-6z" fill="#27283a"/><path d="m2 12.578v31.422l13.49-7.7089 0.0059-16.004z" fill="#03045e"/><path d="m15.496 20.287-13.496 7.7129v16l13.49-7.709 0.009766-16.002z" fill="#023e8a"/><path d="m16 4-13.496 7.7109 13.496 7.7148 13.496-7.715z" fill="#90e0ef"/><path d="m16 4v15.426l13.496-7.7148z" fill="#c2fcda"/><path d="m30 12.578-13.496 7.709-0.003906 15.428 13.5-7.7148z" fill="#0096c7"/><path d="m30 12.578-13.496 7.709 13.496 7.7129z" fill="#00b4d8"/></g><path d="m2.5039 11.711-0.50391 0.28906v0.57812l13.5 7.7109-0.0098 16.002 1.0098-0.57617v-15.426l13.5-7.7109v-0.57812l-0.50391-0.28906-13.496 7.7148z" fill="#effcff"/></svg>
