<?xml version="1.0" encoding="UTF-8"?>
<svg width="640" height="110" version="1.1" viewBox="0 0 640 110" xmlns="http://www.w3.org/2000/svg" xmlns:osb="http://www.openswatchbook.org/uri/2009/osb" xmlns:xlink="http://www.w3.org/1999/xlink"><circle cx="177" cy="32.82" r="0" fill="#dee0e6"/><circle cx="656.6" cy="-554" r="0" fill="#dee0e6"/><g transform="matrix(2.5 0 0 2.5 51.76 -28.22)"><path d="m93.3 21.87v31.42l13.49-7.709.006-16z" fill="#03045e"/><path d="m106.8 29.58-13.5 7.713v16l13.49-7.709.01-16z" fill="#023e8a"/><path d="m107.3 13.29-13.5 7.711 13.5 7.715 13.5-7.715z" fill="#90e0ef"/><path d="m107.3 13.29v15.43l13.5-7.715z" fill="#c2fcda"/><path d="m121.3 21.87-13.5 7.709-.004 15.43 13.5-7.715z" fill="#0096c7"/><path d="m121.3 21.87-13.5 7.709 13.5 7.713z" fill="#00b4d8"/><path d="m93.8 21-.5039.2891v.5781l13.5 7.711-.01 16 1.01-.5762v-15.43l13.5-7.711v-.5781l-.5039-.2891-13.5 7.715z" fill="#effcff"/></g><circle cx="523.7" cy="-60.15" r="0" fill="#dee0e6"/><g fill="#000000" font-family="sans-serif" font-size="40px" letter-spacing="0px" text-anchor="middle" word-spacing="0px"><text x="18.764177" y="-140.36609" text-align="center" style="line-height:1.25" xml:space="preserve"><tspan x="18.764177" y="-140.36609"/></text><text x="-1.2358201" y="-140.36609" text-align="center" style="line-height:1.25" xml:space="preserve"><tspan x="-1.2358201" y="-140.36609"/></text><text x="-21.235821" y="-140.36609" text-align="center" style="line-height:1.25" xml:space="preserve"><tspan x="-21.235821" y="-140.36609"/></text><text x="-41.235821" y="-140.36609" text-align="center" style="line-height:1.25" xml:space="preserve"><tspan x="-41.235821" y="-140.36609"/></text><text x="-61.235821" y="-140.36609" text-align="center" style="line-height:1.25" xml:space="preserve"><tspan x="-61.235821" y="-140.36609"/></text><text x="-81.235817" y="-140.36609" text-align="center" style="line-height:1.25" xml:space="preserve"><tspan x="-81.235817" y="-140.36609"/></text><text x="-101.23582" y="-140.36609" text-align="center" style="line-height:1.25" xml:space="preserve"><tspan x="-101.23582" y="-140.36609"/></text><text x="-121.23582" y="-140.36609" text-align="center" style="line-height:1.25" xml:space="preserve"><tspan x="-121.23582" y="-140.36609"/></text><text x="-141.23582" y="-140.36609" text-align="center" style="line-height:1.25" xml:space="preserve"><tspan x="-141.23582" y="-140.36609"/></text><text x="-1.2358201" y="-68.366081" text-align="center" style="line-height:1.25" xml:space="preserve"><tspan x="-1.2358201" y="-68.366081"/></text><text x="-21.235821" y="-68.366081" text-align="center" style="line-height:1.25" xml:space="preserve"><tspan x="-21.235821" y="-68.366081"/></text><text x="-41.235821" y="-68.366081" text-align="center" style="line-height:1.25" xml:space="preserve"><tspan x="-41.235821" y="-68.366081"/></text><text x="-61.235821" y="-68.366081" text-align="center" style="line-height:1.25" xml:space="preserve"><tspan x="-61.235821" y="-68.366081"/></text><text x="-81.235817" y="-68.366081" text-align="center" style="line-height:1.25" xml:space="preserve"><tspan x="-81.235817" y="-68.366081"/></text><text x="-101.23582" y="-68.366081" text-align="center" style="line-height:1.25" xml:space="preserve"><tspan x="-101.23582" y="-68.366081"/></text><text x="-121.23582" y="-68.366081" text-align="center" style="line-height:1.25" xml:space="preserve"><tspan x="-121.23582" y="-68.366081"/></text><text x="-141.23582" y="-68.366081" text-align="center" style="line-height:1.25" xml:space="preserve"><tspan x="-141.23582" y="-68.366081"/></text><text x="18.764177" y="-68.366081" text-align="center" style="line-height:1.25" xml:space="preserve"><tspan x="18.764177" y="-68.366081"/></text><text x="-1.2358201" y="-104.36608" text-align="center" style="line-height:1.25" xml:space="preserve"><tspan x="-1.2358201" y="-104.36608"/></text><text x="-21.235821" y="-104.36608" text-align="center" style="line-height:1.25" xml:space="preserve"><tspan x="-21.235821" y="-104.36608"/></text><text x="-41.235821" y="-104.36608" text-align="center" style="line-height:1.25" xml:space="preserve"><tspan x="-41.235821" y="-104.36608"/></text><text x="-61.235821" y="-104.36608" text-align="center" style="line-height:1.25" xml:space="preserve"><tspan x="-61.235821" y="-104.36608"/></text><text x="-81.235817" y="-104.36608" text-align="center" style="line-height:1.25" xml:space="preserve"><tspan x="-81.235817" y="-104.36608"/></text><text x="-101.23582" y="-104.36608" text-align="center" style="line-height:1.25" xml:space="preserve"><tspan x="-101.23582" y="-104.36608"/></text><text x="-121.23582" y="-104.36608" text-align="center" style="line-height:1.25" xml:space="preserve"><tspan x="-121.23582" y="-104.36608"/></text><text x="-141.23582" y="-104.36608" text-align="center" style="line-height:1.25" xml:space="preserve"><tspan x="-141.23582" y="-104.36608"/></text><text x="18.764177" y="-104.36608" text-align="center" style="line-height:1.25" xml:space="preserve"><tspan x="18.764177" y="-104.36608"/></text><text x="-1.2358201" y="-32.366085" text-align="center" style="line-height:1.25" xml:space="preserve"><tspan x="-1.2358201" y="-32.366085"/></text><text x="-21.235821" y="-32.366085" text-align="center" style="line-height:1.25" xml:space="preserve"><tspan x="-21.235821" y="-32.366085"/></text><text x="-41.235821" y="-32.366085" text-align="center" style="line-height:1.25" xml:space="preserve"><tspan x="-41.235821" y="-32.366085"/></text><text x="-61.235821" y="-32.366085" text-align="center" style="line-height:1.25" xml:space="preserve"><tspan x="-61.235821" y="-32.366085"/></text><text x="-81.235817" y="-32.366085" text-align="center" style="line-height:1.25" xml:space="preserve"><tspan x="-81.235817" y="-32.366085"/></text><text x="-101.23582" y="-32.366085" text-align="center" style="line-height:1.25" xml:space="preserve"><tspan x="-101.23582" y="-32.366085"/></text><text x="-121.23582" y="-32.366085" text-align="center" style="line-height:1.25" xml:space="preserve"><tspan x="-121.23582" y="-32.366085"/></text><text x="-141.23582" y="-32.366085" text-align="center" style="line-height:1.25" xml:space="preserve"><tspan x="-141.23582" y="-32.366085"/></text><text x="18.764179" y="-32.366085" text-align="center" style="line-height:1.25" xml:space="preserve"><tspan x="18.764179" y="-32.366085"/></text><text x="-1.2358201" y="-12.366084" text-align="center" style="line-height:1.25" xml:space="preserve"><tspan x="-1.2358201" y="-12.366084"/></text><text x="-21.235821" y="-12.366084" text-align="center" style="line-height:1.25" xml:space="preserve"><tspan x="-21.235821" y="-12.366084"/></text><text x="-41.235821" y="-12.366084" text-align="center" style="line-height:1.25" xml:space="preserve"><tspan x="-41.235821" y="-12.366084"/></text><text x="-61.235821" y="-12.366084" text-align="center" style="line-height:1.25" xml:space="preserve"><tspan x="-61.235821" y="-12.366084"/></text><text x="-81.235817" y="-12.366084" text-align="center" style="line-height:1.25" xml:space="preserve"><tspan x="-81.235817" y="-12.366084"/></text><text x="-101.23582" y="-12.366084" text-align="center" style="line-height:1.25" xml:space="preserve"><tspan x="-101.23582" y="-12.366084"/></text><text x="-121.23582" y="-12.366084" text-align="center" style="line-height:1.25" xml:space="preserve"><tspan x="-121.23582" y="-12.366084"/></text><text x="-141.23582" y="-12.366084" text-align="center" style="line-height:1.25" xml:space="preserve"><tspan x="-141.23582" y="-12.366084"/></text><text x="18.764179" y="-12.366084" text-align="center" style="line-height:1.25" xml:space="preserve"><tspan x="18.764179" y="-12.366084"/></text><text x="-1.2358201" y="7.6339164" text-align="center" style="line-height:1.25" xml:space="preserve"><tspan x="-1.2358201" y="7.6339164"/></text><text x="-21.235821" y="7.6339164" text-align="center" style="line-height:1.25" xml:space="preserve"><tspan x="-21.235821" y="7.6339164"/></text><text x="-41.235821" y="7.6339164" text-align="center" style="line-height:1.25" xml:space="preserve"><tspan x="-41.235821" y="7.6339164"/></text><text x="-61.235821" y="7.6339164" text-align="center" style="line-height:1.25" xml:space="preserve"><tspan x="-61.235821" y="7.6339164"/></text><text x="-81.235817" y="7.6339164" text-align="center" style="line-height:1.25" xml:space="preserve"><tspan x="-81.235817" y="7.6339164"/></text><text x="-101.23582" y="7.6339164" text-align="center" style="line-height:1.25" xml:space="preserve"><tspan x="-101.23582" y="7.6339164"/></text><text x="-121.23582" y="7.6339164" text-align="center" style="line-height:1.25" xml:space="preserve"><tspan x="-121.23582" y="7.6339164"/></text><text x="-141.23582" y="7.6339164" text-align="center" style="line-height:1.25" xml:space="preserve"><tspan x="-141.23582" y="7.6339164"/></text><text x="18.764179" y="7.6339164" text-align="center" style="line-height:1.25" xml:space="preserve"><tspan x="18.764179" y="7.6339164"/></text></g><circle cx="579.5" cy="-988.4" r="0" fill="#dee0e6"/><g fill="#1aacda"><path d="m174.4 12c-3.535 0-6.4 2.84-6.4 6.344v50.75c0 3.504 2.865 6.344 6.4 6.344h24.98v-2.379h-24.98c-2.209 0-4-1.775-4-3.965v-50.75c0-2.19 1.791-3.965 4-3.965h36.8c2.209 0 4 1.775 4 3.965v50.75c0 1.207-.557 2.274-1.416 3.001v2.794c2.245-.9855 3.816-3.205 3.816-5.795v-50.75c0-3.503-2.865-6.344-6.4-6.344zm2.584 13.33v2.379h12.8v-2.379zm16 0v2.379h16v-2.379zm-16 4.758v2.379h4.8v-2.379zm9.6 0v2.379h12.8v-2.379zm17.6 0v2.379h4.8v-2.379zm-27.2 4.758v2.379h8v-2.379zm11.2 0v2.379h20.8v-2.379zm-11.2 4.758v2.379h16v-2.379zm19.2 0v2.379h12.8v-2.379zm-12.01 9.509c-.1482-.01586-.3004.0032-.4625.03093-.3241.06344-.6511.2588-.8562.5297-.205.2709-.3152.5929-.3781.9354-.0986.5346-.0128 1.318.075 2.147-.5715.3966-1.106.5836-1.584.4832-.5557-.1174-1.064-.4996-1.344-.9231-.2794-.4236-.301-.7842-.1625-1.025.1386-.2411.5564-.5852 1.75-.6195l-.0437-1.539c-1.496.04282-2.571.5262-3.066 1.388-.4947.8613-.2719 1.883.2313 2.645.5031.7622 1.314 1.376 2.316 1.586 1.002.2103 2.18-.04758 3.184-.9231l.3219-.2726-.0594-.4058c-.159-1.126-.1639-1.889-.0938-2.267.0302-.1507.0624-.1989.0781-.2292.0181.01586.2116.04932.575.2447.3991.2163.9092.5578 1.466.9509 1.113.7865 2.405 1.76 3.781 2.224.6882.232 1.42.3372 2.15.1456.4723-.1237.8261-.5787 1.216-.9509.3792.5202.6794 1.203 1.234 1.273.8745.111 1.643-.2621 2.319-.6969 1.121-.7216 1.736-1.486 2.025-1.815 1.868 1.694 3.862 2.616 5.516 2.599.9413-.01586 1.786-.1811 2.456-.3438.67-.1629 1.218-.3172 1.372-.3345l-.1719-1.524c-.4886.05551-.9542.2262-1.566.3748-.6115.1491-1.333.2801-2.103.2881-1.54.01586-3.302-.4178-5.109-2.435l-.5906-.6629-.5656.6815s-1.039 1.207-2.1 1.889c-.5303.3411-1.044.4979-1.281.4677-.237-.03013-.4434-.09515-.6719-.8921l-.4594-1.645-.925 1.434c-.3362.521-.6573.7107-.9937.7992-.3362.08881-.7422.06439-1.247-.1053-1.009-.3402-2.26-1.229-3.388-2.026-.5636-.3981-1.091-.7555-1.612-1.038-.3907-.2114-.7833-.4091-1.228-.4398h-.003zm-3.628 7.911v.0032c-.1736 0-.3496.01634-.525.0433-.837.167-1.584.7548-1.978 1.629-.3937.8745-.4908 2.006-.275 3.413l1.525-.223c-.1863-1.214-.063-2.056.1625-2.552.2237-.4966.4992-.6814.8719-.7558.7453-.1491 2.12.4436 3.109 1.917l.4719.6969.6688-.5328c.8325-.6819 1.429-1.093 1.8-1.282.185-.09516.0888-.08342.125-.09293.0181.1943.016.4743.0282.8023.0128.3589.0205.755.2 1.18.1778.4252.693.8613 1.266.9045.5727.04282 1.12-.1411 1.841-.5111.6819-.3494 1.557-.9287 2.609-1.707-.0835.03965.1896.01903.7469.254.5678.2388 1.353.6195 2.331.9509 1.957.6628 4.734 1.102 8.306-.07438l-.5063-1.453c-3.245 1.069-5.552.6682-7.297.07739-.8725-.2955-1.59-.6376-2.225-.9045-.6346-.2671-1.242-.5823-1.981-.2602l-.0906.04948-.0781.04028c-1.098.8204-1.92 1.358-2.516 1.663-.5691.2917-.8864.3311-.975.3314-.0302-.08881-.0696-.3054-.0781-.5916-.006-.308.0112-.6544-.0374-1.028-.0483-.374-.1816-.9202-.7312-1.189-.5497-.2693-1.1-.0858-1.65.1951-.4529.2314-1.043.6772-1.703 1.196-1.025-1.15-2.194-2.147-3.409-2.19zm26.03 5.576a4.8 4.758 0 00-4.8 4.758 4.8 4.758 0 004.8 4.758 4.8 4.758 0 004.8-4.758 4.8 4.758 0 00-4.8-4.758zm-4.8 9.735v13.26l4.8-6.344 4.8 6.344v-13.26a6.4 6.344 0 01-4.8 2.159 6.4 6.344 0 01-4.8-2.159z" fill-rule="evenodd"/><path d="m612.1 44.29s.3374 2.506-17.19 4.85l.3354 2.882 16.9-2.304v30.66s-4.788 1.263-9.824 1.263v3.088h22.74v-3.088c-5.128 0-9.824-1.263-9.824-1.263v-31l13.58-1.86-8.812 20.14c0 4.186 3.958 7.578 8.842 7.578s8.842-3.394 8.842-7.578l-8.818-20.16.1776-.0268 3.754-.5032-.3356-2.876c-17.53 2.344-17.86-.1574-17.86-.1574zm-13.57 7.306-8.842 20.22c0 4.186 3.958 7.58 8.842 7.58s8.842-3.394 8.842-7.58zm30.32.6898 6.464 15.39h-12.93zm-30.32 4.134 6.464 15.39h-12.93z" stroke-width="2"/><path d="m152.9 40.66h-8v22h-2l-14-8v8l-15-8v8h-5v22h44z" fill-rule="evenodd" stroke-width="2"/><path d="m472.7 55.61-9.698 18.22 9.715 5.171 2.347-4.41c.5722.3642 4.47 2.857 6.296 4.611-.879 1.217-1.591 2.622-1.591 3.321 0 1.375 1.375 2.148 2.752 2.148.7575 0 1.921-1.071 2.803-2.227l.01.01c-.8425 1.151-1.534 2.502-1.534 3.168 0 1.285 1.285 2.007 2.571 2.007.7214 0 1.836-1.044 2.664-2.148l.0226.0172c-.7629 1.031-1.396 2.251-1.396 2.851 0 1.141 1.141 1.786 2.282 1.786.6496 0 1.66-.9541 2.398-1.951l.018.0172c-.4174.6782-.7501 1.356-.7501 1.732 0 .9607.9614 1.5 1.922 1.5.4096 0 .9915-.4534 1.52-1.03l.2916.2378-.0708-.0736c.9086.9079 2.18 1.307 3.394 1.039.8239-.1822 1.143-1.208 1.543-2.083.6628.001 1.564.0333 2.53-.3539.7506-.2999 1.096-1.333 1.472-2.256 1.11.01 2.098.0667 3.004-.3849.5107-.2552.9705-.7184 1.22-1.28.1564-.3517.166-.7942.2123-1.209 1.03-.1497 2.082-.2931 2.754-.9652.8956-.895 1.28-2.191 1.28-3.666 0-.4052-.0988-.7301-.2491-1.03.7498-2.009 1.932-3.046 3.544-4.138l2.537 4.764 9.715-5.171-9.698-18.22-9.715 5.175c-.6052.6052-1.521 1.097-2.375 1.489-1.547-.038-9.515-1.365-9.515-1.365v-.004c-2.641 0-4.71 1.129-6.224 2.301-1.025.1084-2.137.0837-3.097.0793-1.882-.6236-3.946-1.445-5.472-2.658zm8.767 6.955c1.909 1.205 5.595 2.755 6.001 2.782.3081.0218.6408.0152.968.0172-.9454 1.454.0604 3.994-2.148 6.55 0 2.752 6.504 1.376 7.881-1.375 0-2.234 1.805-3.531 3.224-3.215 6.384 2.663 9.025 6.99 12.75 11.34.381.5069.467.9321.467.7416 2e-5 1.131-.262 1.793-.6709 2.203-.409.4088-1.084.6793-2.217.6793h-1.025v1.028c0 .5656-.0846.912-.1614 1.084-.0764.1722-.1048.2038-.2463.2746-.2832.1415-1.172.2152-2.477.2152h-1.033v1.036c0 .9594-.264 1.102-.8152 1.322-.5512.2202-1.409.252-2.06.252h-1.036v1.039c0 .8702-.2428.9636-.6596 1.056-.4166.0921-1.099-.094-1.495-.4897l-.0284-.0312-.4897-.3992c.0798-.204.1362-.3895.1218-.5237.0884-1.101-.8736-2.06-1.835-2.06-.2429 0-.5471.185-.8662.4756l-.3736-.3057c-.00056-.01.006-.021.006-.0283.1052-1.307-1.036-2.449-2.176-2.449-.1702 0-.3679.096-.5775.2293l-.4559-.3737c.0378-.1487.0716-.2948.0594-.4048.1186-1.472-1.167-2.757-2.451-2.757-.2612-2e-5-.5822.1913-.9172.4557l-.3511-.2887c.0952-.2605.152-.4983.133-.6737.1268-1.576-1.245-2.949-2.622-2.949-.3305 0-.7426.2474-1.175.6284l-.385-.3145-6.361-4.45zm-12.35 9.984c.8004 0 1.449.6489 1.449 1.449 0 .8002-.6489 1.449-1.449 1.449-.8005 0-1.449-.6489-1.449-1.449 0-.8002.6489-1.449 1.449-1.449zm53 0c.8005 0 1.449.6489 1.449 1.449 0 .8002-.6489 1.449-1.449 1.449-.8002 0-1.449-.6489-1.449-1.449 0-.8002.6489-1.449 1.449-1.449z" color="#000000" color-rendering="auto" fill-rule="evenodd" image-rendering="auto" shape-rendering="auto" solid-color="#000000" stroke-width="1.086" style="isolation:auto;mix-blend-mode:normal;text-decoration-color:#000000;text-decoration-line:none;text-decoration-style:solid;text-indent:0;text-transform:none;white-space:normal"/><path d="m7.087 24.01c-3.924 0-7.087 3.166-7.087 7.1v21.29c0 2.988 1.835 5.53 4.433 6.58.5579 5.059-4.433 7.617-4.433 7.617s8.856 0 12.4-7.1h1.771v-14.2c0-3.932 3.16-7.096 7.085-7.096h14.18v-7.1c0-3.932-3.163-7.1-7.087-7.1zm28.35 14.2v14.19c0 3.932-3.163 7.1-7.087 7.1h-14.17v7.1c0 3.932 3.16 7.101 7.085 7.101h15.94c3.542 7.1 12.4 7.1 12.4 7.1s-4.985-2.562-4.428-7.621c2.598-1.05 4.428-3.592 4.428-6.58v-21.3c0-3.932-3.158-7.096-7.082-7.096zm-5.316 5.405-7.17 7.181-3.257-3.27-1.952 1.964 5.209 5.219 9.122-9.14z" stroke-width=".8"/><path d="m392 16c-5.541 0-9.996 4.455-9.996 9.996v30.01c0 5.539 4.456 10.01 9.996 10.01h30.01c5.541 0 9.996-4.465 9.996-10.01v-30.01c0-5.539-4.456-9.996-9.996-9.996h-15zm14.11 7.501h.004c2.971-.04645 5.912.8571 8.436 2.397 1.779.5948 4.732 3.818 1.336 4.19-1.534-1.045-2.989-2.289-4.769-2.938-3.898-1.72-8.584-1.175-12.01 1.343-.9986 1.362-3.99 2.624-3.824-.157 2.685-3.008 6.801-4.724 10.83-4.836zm1.043 4.462h.004c2.192.0036 4.33.8117 6.102 2.076 1.856.652 3.604 4.209.4082 3.894-1.954-2.14-4.851-3.689-7.829-3.231-4.655.8824-7.65 5.015-10.23 8.6-2.787 1.166-2.324-2.516-.7187-3.555 2.946-3.912 7.073-7.736 12.26-7.784zm-.0245 4.734c2.978.4984 5.614 2.474 7.404 4.853 2.057 2.565 1.493 6.048.5617 8.942-.8807 2.582 1.93 3.026 3.353 4.194 1.095 2.921-3.275 1.965-4.337.5268-2.382-1.572-1.982-4.708-1.193-7.044.8819-2.235.1593-4.887-1.727-6.374-1.543-1.245-3.502-2.975-5.631-2.275-2.676 1.215-4.232 3.904-6.256 5.917-1.406 1.22-2.497 3.181-4.316 3.674-3.648-1.288 1.294-3.981 2.397-5.551 2.515-2.608 5.252-6.837 9.745-6.863zm10.1 2.84c.1683-.01375.3598-.01375.5757 0 2.322 2.099 2.87 5.58 2.439 8.569.0572 1.913-1.713 6.342-3.587 3.262.5814-2.165 1.359-4.457.8792-6.751-.2438-1.715-2.831-4.874-.307-5.08zm-10.56 1.905c2.52.1768 4.08 2.794 3.388 5.139-1.054 3.008-3.511 5.272-5.757 7.435-2.051 1.504-3.663 3.753-5.834 4.888-2.972.209-1.379-2.993.3454-3.663 2.756-2.46 5.786-4.76 7.875-7.85 1.518-1.25.75-4.132-1.329-2.596-2.395 3.417-4.924 6.898-8.073 9.71-.627 2.07-4.687 1.622-3.339-.7292 2.526-1.899 4.617-4.306 6.517-6.814 1.756-2.088 3.14-5.265 6.207-5.52zm2.948 9.94c1.08-.1125 1.562 1.14 1.493 2.027-.0983 2.367 2.197 3.367 3.653 4.522.5252 3.366-3.926 1.347-4.766-.3663-1.086-1.593-2.899-5.133-.3803-6.179zm-4.762 4.658c.6917-.07681 1.397.07252 2.02.3733 1.735 1.006 3.28 3.042 3.109 5.136-1.954 2.765-2.699-1.685-4.12-2.568-2.158-1.254-3.037 2.785-5.185 1.389-1.322-2.262 2.285-4.025 4.176-4.33z" stroke-width="1.786"/><path d="m243.1 23.97v3.547h13.01l1.181-3.547h-14.18zm0 5.913v3.544a5.911 5.911 0 005.913 5.913 5.911 5.911 0 005.913-5.913h3.544l-2.362-3.544h-13zm3.801 11.82-2.461.4285 15 15-.4984-14.06-7.826-1.372zm-5.303.9271-2.521.4445-.562 15.99c4.835 4.513 16.18 3.832 20.37.8637l-17.28-17.28z" stroke-width="1.626"/><path d="m80.64 21.87-18.36 8.59h36.75l-18.37-8.59zm-15.49 10.26v19.19h4.429v-14.28c0-.9788.9948-1.774 2.218-1.774 1.224 0 2.215.7957 2.215 1.774v14.28h4.429v-14.28c0-.9788.9948-1.774 2.218-1.774 1.224 0 2.215.7957 2.215 1.774v14.28h4.433v-14.28c0-.9788.9916-1.774 2.215-1.774 1.224 0 2.218.7957 2.218 1.774v14.28h4.429v-19.19zm-1.089 20.96-1.772 2.659h36.75l-1.774-2.659z" stroke-width="1.67"/><path d="m542.8 18.54h6.053v18.16h1.824l12.11-6.053v6.053l12.11-6.053v6.053h4.227v18.16h-36.31z" fill-rule="evenodd" stroke-width="1.651"/><path d="m447.8 16.66v20.23h31.23v-20.23zm40.67 2.689-8.092.0074v17.52h13.49v-9.44l-2.696-6.741zm-5.396 2.703h6.741l2.023 5.396h-8.764zm-35.29 16.18c0 5.394 4.041 5.396 4.041 5.396h.18c-.1163-.44-.1775-.8943-.18-1.35.002-1.549.6711-3.024 1.836-4.045zm9.437 0c-2.235 0-4.045 1.811-4.045 4.045s1.811 4.045 4.045 4.045c2.235 0 4.045-1.811 4.045-4.045s-1.811-4.045-4.045-4.045zm3.56 0c1.164 1.022 1.834 2.495 1.836 4.045-.001.4552-.0614.9088-.1764 1.35h19.46c-.1163-.44-.1738-.8943-.1764-1.35.002-1.549.6713-3.024 1.836-4.045zm26.33 0c-2.235 0-4.045 1.811-4.045 4.045s1.811 4.045 4.045 4.045c2.234 0 4.045-1.811 4.045-4.045s-1.811-4.045-4.045-4.045zm3.557 0c1.164 1.022 1.834 2.495 1.836 4.045-.001.4552-.0614.9088-.1764 1.35h1.526v-5.396zm-33.45 1.35c1.489 0 2.7 1.206 2.7 2.696 0 1.489-1.21 2.696-2.7 2.696-1.489 0-2.696-1.206-2.696-2.696 0-1.49 1.206-2.696 2.696-2.696zm29.89 0c1.489 0 2.696 1.206 2.696 2.696 0 1.489-1.206 2.696-2.696 2.696-1.489 0-2.696-1.206-2.696-2.696 0-1.49 1.206-2.696 2.696-2.696z" fill-rule="evenodd" stroke-width="6.962"/></g><circle cx="557.4" cy="-1325" r="0" fill="#dee0e6"/><circle cx="599" cy="-116" r="0" fill="#dee0e6"/></svg>
